<?xml version="1.0" encoding="UTF-8"?>
<svg version="1.1" xmlns="http://www.w3.org/2000/svg" width="512" height="476">
<path d="M0 0 C1.75168621 -0.0128013 3.50335306 -0.02852593 5.25498962 -0.04690552 C9.96009605 -0.0869388 14.66416856 -0.08330828 19.36938572 -0.06864166 C23.322487 -0.06036766 27.27539969 -0.07389088 31.22847819 -0.08715248 C40.56866547 -0.11807071 49.90835272 -0.11319039 59.24853516 -0.08496094 C68.82668963 -0.05659067 78.40339166 -0.08644609 87.98137307 -0.14558029 C96.25724032 -0.19471575 104.53265809 -0.20827636 112.80865836 -0.1939888 C117.72841243 -0.18576094 122.64726963 -0.18989009 127.56690216 -0.22802734 C166.23975283 -0.49869761 166.23975283 -0.49869761 183.78808594 9.9375 C185.73676485 10.91518783 187.68955159 11.8848841 189.65136719 12.8359375 C191.14143702 13.64876086 192.62491623 14.4738172 194.10058594 15.3125 C194.91414551 15.76818359 195.72770508 16.22386719 196.56591797 16.69335938 C214.95290246 27.16736734 231.59941899 40.25204676 246.78808594 54.9375 C247.44131836 55.56881836 248.09455078 56.20013672 248.76757812 56.85058594 C256.98202194 64.83309251 264.79667564 72.84999326 271.78808594 81.9375 C272.94630859 83.37029297 272.94630859 83.37029297 274.12792969 84.83203125 C291.46710663 106.60872267 304.90689232 131.58596917 313.78808594 157.9375 C314.10116699 158.865625 314.41424805 159.79375 314.73681641 160.75 C319.22218483 174.27270828 322.67150849 187.84357 324.78808594 201.9375 C324.9646875 203.07227783 325.14128906 204.20705566 325.32324219 205.3762207 C326.92433295 216.6717731 327.18621089 227.85233655 327.16308594 239.25 C327.16287445 240.21527618 327.16266296 241.18055237 327.16244507 242.17507935 C327.12774701 258.09326811 326.06267412 273.31795651 322.78808594 288.9375 C322.60616699 289.85354004 322.42424805 290.76958008 322.23681641 291.71337891 C314.31287255 331.04984727 296.19621668 367.74049905 270.14355469 398.18359375 C267.84358252 400.87261594 265.62583053 403.61403503 263.41308594 406.375 C255.90510709 415.55732458 247.99794422 424.43260722 238.78808594 431.9375 C237.61450614 432.92269756 236.44137447 433.90842905 235.26855469 434.89453125 C215.06902017 451.74410592 192.77689246 464.22986787 168.78808594 474.9375 C168.07199189 475.28163342 167.35589785 475.62576685 166.61810398 475.98032856 C163.14150269 477.15618801 159.92456274 477.23692789 156.29808044 477.23857117 C155.55246245 477.24663011 154.80684446 477.25468905 154.03863198 477.2629922 C151.54420856 477.28732662 149.04993917 477.29742152 146.55541992 477.30737305 C144.76448997 477.32154686 142.97356577 477.33646321 141.18264771 477.35206604 C135.29987388 477.39927376 129.41708592 477.42500782 123.53417969 477.44921875 C121.50238571 477.45863142 119.47059212 477.46812592 117.4387989 477.47770119 C108.97610504 477.51620665 100.51342104 477.54940745 92.05065823 477.56807232 C79.96420584 477.59480029 67.87883182 477.65212533 55.79276985 477.75383729 C47.27437689 477.82304255 38.75626816 477.8570749 30.23760086 477.86563712 C25.16163077 477.87160277 20.08677043 477.89212556 15.01110649 477.95020103 C-24.86170939 478.38367891 -24.86170939 478.38367891 -39.30673027 469.12331581 C-42.0943335 467.38826852 -45.02279972 465.97240082 -47.96737003 464.52532482 C-56.8652776 460.09020075 -65.12478885 454.6955997 -73.21191406 448.9375 C-74.20022217 448.23536377 -74.20022217 448.23536377 -75.20849609 447.51904297 C-83.76104376 441.39193637 -91.74241443 434.90255174 -99.34472656 427.62890625 C-101.32321978 425.7717103 -103.27304419 424.03685779 -105.36816406 422.328125 C-107.71761271 420.35303905 -109.63835838 418.47414708 -111.58691406 416.125 C-114.03209535 413.24799862 -116.5636445 410.56565563 -119.27441406 407.9375 C-122.36347065 404.88388192 -125.00644578 401.75566605 -127.53613281 398.23046875 C-128.78976724 396.51512281 -130.09256465 394.83551776 -131.41894531 393.17578125 C-165.86285001 349.94461267 -183.76302341 294.85531459 -183.52441406 239.875 C-183.52225891 238.97675507 -183.52010376 238.07851013 -183.5178833 237.15304565 C-183.46318177 222.90171554 -182.90181123 208.96930957 -180.21191406 194.9375 C-180.01855469 193.9180127 -179.82519531 192.89852539 -179.62597656 191.84814453 C-172.2914485 154.53599678 -157.43169799 119.74930128 -135.21191406 88.9375 C-134.60089844 88.08027344 -133.98988281 87.22304687 -133.36035156 86.33984375 C-130.57348301 82.51683177 -127.57186512 79.28313309 -124.21191406 75.9375 C-121.98550974 73.57923655 -119.78882483 71.19361838 -117.58691406 68.8125 C-108.30313414 58.84116788 -98.96149381 49.36045838 -88.21191406 40.9375 C-86.76945312 39.76960938 -86.76945312 39.76960938 -85.29785156 38.578125 C-72.92871823 28.74544686 -59.53573044 20.52174735 -45.58691406 13.125 C-44.801875 12.70549072 -44.01683594 12.28598145 -43.20800781 11.85375977 C-40.56875052 10.48681056 -37.89767665 9.2110456 -35.21191406 7.9375 C-34.63380997 7.65487903 -34.05570588 7.37225805 -33.46008348 7.08107281 C-22.09995986 1.60532795 -12.5252348 -0.0918512 0 0 Z M38.78808594 28.9375 C37.54285156 29.93910156 37.54285156 29.93910156 36.27246094 30.9609375 C18.62838511 45.88627208 0.51996624 73.37845892 -4.21191406 95.9375 C0.60308706 96.49487966 5.41876684 97.04586832 10.23510742 97.59155273 C11.86517912 97.77707506 13.49507084 97.96418727 15.12475586 98.15307617 C34.87119217 100.43924895 54.34571867 101.14258872 74.22558594 101.125 C75.95578979 101.12459213 75.95578979 101.12459213 77.72094727 101.12417603 C101.06743265 101.09883467 123.74369832 99.83892003 146.78808594 95.9375 C135.36736678 65.84604884 117.60049411 33.9601588 87.78808594 18.9375 C70.29637162 11.20288257 52.76560836 17.28956465 38.78808594 28.9375 Z M145.78808594 28.9375 C147.11272438 31.67541582 148.56167407 34.25411122 150.18652344 36.82421875 C160.29468828 53.06948367 168.90782471 70.07149215 175.78808594 87.9375 C191.02550592 86.69362898 208.42600879 81.3002772 221.78808594 73.9375 C214.86992044 66.80314183 207.45019523 60.73568895 199.16308594 55.25 C198.25719727 54.64986084 197.35130859 54.04972168 196.41796875 53.43139648 C172.73168627 36.875968 172.73168627 36.875968 145.78808594 28.9375 Z M-12.21191406 31.421875 C-13.40445801 31.95047119 -13.40445801 31.95047119 -14.62109375 32.48974609 C-15.47606445 32.88500488 -16.33103516 33.28026367 -17.21191406 33.6875 C-18.10040039 34.09436035 -18.98888672 34.5012207 -19.90429688 34.92041016 C-40.96120193 44.76360083 -59.62430398 58.13032412 -78.21191406 71.9375 C-74.16277145 75.49535721 -70.02631295 77.70654267 -65.14941406 79.875 C-64.37807129 80.21982422 -63.60672852 80.56464844 -62.81201172 80.91992188 C-53.91125199 84.73173413 -44.64746082 86.88886354 -35.21191406 88.9375 C-31.29223556 80.56801447 -31.29223556 80.56801447 -27.57128906 72.109375 C-21.39797121 57.59206235 -14.33606814 43.84059528 -5.21191406 30.9375 C-8.64652362 29.79263015 -9.05893951 30.01781602 -12.21191406 31.421875 Z M-101.21191406 96.9375 C-103.20030887 99.16217012 -104.95689339 101.34935141 -106.71191406 103.75 C-107.24163818 104.46921631 -107.7713623 105.18843262 -108.31713867 105.92944336 C-132.01157192 138.76179819 -150.21191406 181.92450825 -150.21191406 222.9375 C-141.96191406 222.9375 -133.71191406 222.9375 -125.21191406 222.9375 C-125.21191406 233.1675 -125.21191406 243.3975 -125.21191406 253.9375 C-133.46191406 253.9375 -141.71191406 253.9375 -150.21191406 253.9375 C-149.40084434 279.62137459 -142.60314887 305.48220474 -132.21191406 328.9375 C-131.86676758 329.72205566 -131.52162109 330.50661133 -131.16601562 331.31494141 C-122.99901998 349.67133686 -112.87060085 366.33818907 -100.21191406 381.9375 C-94.02475167 380.04233314 -88.09485804 377.96665655 -82.27441406 375.125 C-76.50903112 372.38487831 -70.64364169 370.26034771 -64.58691406 368.25 C-63.29926147 367.82207153 -63.29926147 367.82207153 -61.9855957 367.38549805 C-55.78083673 365.36453292 -49.52005815 363.60543908 -43.21191406 361.9375 C-43.98104794 358.06216076 -44.75255106 354.18729652 -45.52441406 350.3125 C-45.73775391 349.23742187 -45.95109375 348.16234375 -46.17089844 347.0546875 C-47.77762954 338.99705091 -49.48993173 330.97341757 -51.21191406 322.9375 C-40.98191406 322.9375 -30.75191406 322.9375 -20.21191406 322.9375 C-19.88191406 325.9075 -19.55191406 328.8775 -19.21191406 331.9375 C-18.85334004 333.84230025 -18.46129444 335.74143533 -18.02050781 337.62890625 C-17.79814453 338.59248047 -17.57578125 339.55605469 -17.34667969 340.54882812 C-17.11658203 341.52271484 -16.88648438 342.49660156 -16.64941406 343.5 C-16.41544922 344.50869141 -16.18148437 345.51738281 -15.94042969 346.55664062 C-15.36882691 349.01803217 -14.79257866 351.47823347 -14.21191406 353.9375 C-4.49306599 353.3051092 5.13551532 352.20408553 14.78808594 350.9375 C61.96932525 344.74649892 108.70441235 347.30865013 155.78808594 352.9375 C158.05602226 347.24491484 159.69342208 341.6742573 160.97558594 335.6875 C161.24145508 334.50414062 161.24145508 334.50414062 161.51269531 333.296875 C162.30372493 329.68073963 162.78808594 326.68060676 162.78808594 322.9375 C173.01808594 322.9375 183.24808594 322.9375 193.78808594 322.9375 C191.14808594 335.1475 188.50808594 347.3575 185.78808594 359.9375 C191.93225392 362.39516719 197.9466193 364.74604122 204.21777344 366.77734375 C205.77118259 367.28833932 207.32456725 367.79940933 208.87792969 368.31054688 C211.26852751 369.09298216 213.65961726 369.8738699 216.05126953 370.65307617 C218.39980529 371.41957524 220.74669487 372.19085835 223.09277344 372.96484375 C224.22304962 373.33577652 224.22304962 373.33577652 225.37615967 373.71420288 C230.88640959 375.55390242 236.16557966 377.74234612 241.40966797 380.25219727 C243.76366029 381.17252338 243.76366029 381.17252338 245.96655273 380.21923828 C255.12907636 373.77194583 261.37318909 360.5417292 266.78808594 350.9375 C267.15788574 350.29361328 267.52768555 349.64972656 267.90869141 348.98632812 C284.51366155 319.91142161 293.65458597 287.00549972 297.78808594 253.9375 C287.88808594 253.9375 277.98808594 253.9375 267.78808594 253.9375 C267.78808594 243.7075 267.78808594 233.4775 267.78808594 222.9375 C277.68808594 222.9375 287.58808594 222.9375 297.78808594 222.9375 C292.75330986 176.2259664 277.62410476 133.7044524 247.78808594 96.9375 C243.12512547 97.69658659 239.40729079 99.42858176 235.19042969 101.48828125 C230.16324405 103.62959683 224.98076479 105.24540096 219.78808594 106.9375 C217.49846533 107.69884445 215.2094122 108.46189742 212.92089844 109.2265625 C204.20996094 112.13020833 195.49902344 115.03385417 186.78808594 117.9375 C187.62179707 122.15552277 188.45804209 126.37303282 189.29663086 130.59008789 C189.58150679 132.02452011 189.86569192 133.45908969 190.14916992 134.89379883 C190.55693591 136.95690907 190.96719001 139.01951125 191.37792969 141.08203125 C191.62406006 142.32315674 191.87019043 143.56428223 192.1237793 144.84301758 C192.73189972 147.9523781 192.73189972 147.9523781 193.78808594 150.9375 C183.55808594 150.9375 173.32808594 150.9375 162.78808594 150.9375 C162.45808594 147.6375 162.12808594 144.3375 161.78808594 140.9375 C161.15184288 137.86615803 160.48753728 134.84953574 159.72558594 131.8125 C159.44618164 130.66394531 159.44618164 130.66394531 159.16113281 129.4921875 C158.70945518 127.63915105 158.24966146 125.7880958 157.78808594 123.9375 C150.55524583 124.43714175 143.37027513 125.068175 136.17919922 125.9909668 C112.3459608 129.02558587 87.81847326 130.82506799 63.78808594 129.9375 C62.62712402 129.89641113 61.46616211 129.85532227 60.27001953 129.81298828 C41.33878842 129.07258152 22.68598864 127.25318252 3.92529297 124.61450195 C3.14323486 124.50456406 2.36117676 124.39462616 1.55541992 124.28135681 C0.09204772 124.07383822 -1.37088051 123.86315415 -2.83325195 123.6486969 C-6.01849304 123.19093903 -8.98142573 122.9375 -12.21191406 122.9375 C-12.39367187 123.72511719 -12.57542969 124.51273438 -12.76269531 125.32421875 C-13.57910156 128.86197917 -14.39550781 132.39973958 -15.21191406 135.9375 C-16.20191406 140.2275 -17.19191406 144.5175 -18.21191406 148.9375 C-28.11191406 148.9375 -38.01191406 148.9375 -48.21191406 148.9375 C-45.77441406 136.3125 -45.77441406 136.3125 -45.01098633 132.36474609 C-44.81045654 131.32398926 -44.60992676 130.28323242 -44.40332031 129.2109375 C-44.09696655 127.62418213 -44.09696655 127.62418213 -43.78442383 126.00537109 C-43.22139665 122.98831373 -42.70616333 119.96651358 -42.21191406 116.9375 C-47.24211253 115.25302245 -52.2778354 113.58656661 -57.3192749 111.93609619 C-60.43661644 110.91421438 -63.5521222 109.88679681 -66.66748047 108.85888672 C-68.27614355 108.32937522 -69.88551768 107.80201891 -71.49560547 107.27685547 C-79.93117278 104.52354415 -88.1829808 101.77518926 -96.14990234 97.81591797 C-98.29836054 96.74153994 -98.29836054 96.74153994 -101.21191406 96.9375 Z M-4.21191406 384.9375 C8.16802884 415.13522386 24.90785423 446.3855324 55.78808594 460.9375 C68.5689069 465.47164839 79.58999085 464.447231 91.85058594 458.75 C115.00659492 446.44152204 128.68120087 423.13226845 140.10058594 400.5625 C140.42623535 399.92070801 140.75188477 399.27891602 141.08740234 398.61767578 C143.30401932 394.15331928 145.09841482 389.62698722 146.78808594 384.9375 C129.81664295 382.39898893 112.93002311 380.55078137 95.78808594 379.6875 C94.99819275 379.64675354 94.20829956 379.60600708 93.39447021 379.56402588 C60.92268375 377.92704151 27.76657235 378.66822836 -4.21191406 384.9375 Z M177.78808594 389.9375 C175.12395377 395.04477642 172.64743276 400.1988876 170.390625 405.50024414 C164.42594046 419.49128969 157.39444403 432.53432183 148.75683594 445.05859375 C146.83767358 447.72520885 146.83767358 447.72520885 145.78808594 449.9375 C175.09069092 443.74135445 201.73578882 424.11703734 224.78808594 405.9375 C221.0460519 402.97982244 217.2510353 401.50197677 212.78808594 399.9375 C211.8096875 399.56625 210.83128906 399.195 209.82324219 398.8125 C194.1710525 392.59028332 194.1710525 392.59028332 177.78808594 389.9375 Z M-44.83691406 393.5 C-45.48208984 393.67909912 -46.12726563 393.85819824 -46.79199219 394.04272461 C-57.45540027 397.0674901 -68.07345001 400.4418916 -78.21191406 404.9375 C-59.32765291 424.42294549 -31.69726662 441.7985596 -6.21191406 450.9375 C-5.55191406 450.6075 -4.89191406 450.2775 -4.21191406 449.9375 C-4.72238281 449.19371094 -5.23285156 448.44992187 -5.75878906 447.68359375 C-15.9359202 432.39985248 -24.33553506 415.96342327 -31.27050781 398.96826172 C-31.60179687 398.18725098 -31.93308594 397.40624023 -32.27441406 396.6015625 C-32.55414063 395.91529785 -32.83386719 395.2290332 -33.12207031 394.52197266 C-34.1100658 392.77026084 -34.1100658 392.77026084 -36.14306641 392.1730957 C-39.27883684 391.81600124 -41.80596323 392.65806921 -44.83691406 393.5 Z " fill="#077CD7" transform="translate(184.2119140625,-0.9375)"/>
<path d="M0 0 C1.01900391 -0.01224609 2.03800781 -0.02449219 3.08789062 -0.03710938 C4.54678711 -0.04000977 4.54678711 -0.04000977 6.03515625 -0.04296875 C6.92726807 -0.04707764 7.81937988 -0.05118652 8.73852539 -0.05541992 C10.9375 0.1875 10.9375 0.1875 12.9375 2.1875 C13.18359566 4.30768013 13.18359566 4.30768013 13.17800903 6.9836731 C13.18075836 7.99612091 13.18350769 9.00856873 13.18634033 10.05169678 C13.1755545 11.72404388 13.1755545 11.72404388 13.16455078 13.43017578 C13.16484283 14.6008963 13.16513489 15.77161682 13.16543579 16.97781372 C13.16427919 20.19253797 13.15423198 23.40708929 13.14028788 26.62177896 C13.12780592 29.97968708 13.12661203 33.33759839 13.12423706 36.69552612 C13.11801481 43.05620017 13.10159398 49.41680566 13.08153808 55.77744949 C13.0592022 63.01797724 13.04819148 70.25850821 13.03814721 77.49906182 C13.01722836 92.39524611 12.98203797 107.29136621 12.9375 122.1875 C11.9475 122.1875 10.9575 122.1875 9.9375 122.1875 C9.855 122.909375 9.7725 123.63125 9.6875 124.375 C8.76167862 127.84683017 7.43615523 129.61943768 4.9375 132.1875 C0.41068931 134.63350653 -3.98603214 134.52046517 -9 134.5 C-9.78568359 134.51611328 -10.57136719 134.53222656 -11.38085938 134.54882812 C-16.36819004 134.55300162 -19.89604725 134.17780364 -24.0625 131.1875 C-30.32061652 124.75795039 -34.43228718 117.28218665 -38.38998413 109.29815674 C-39.98801065 106.07503732 -41.62445876 102.87137634 -43.25390625 99.6640625 C-43.57817093 99.02298553 -43.90243561 98.38190857 -44.23652649 97.72140503 C-47.12591311 92.0210449 -50.16049848 86.40684975 -53.25 80.8125 C-57.44530962 73.18221413 -61.57396864 65.52048154 -65.625 57.8125 C-66.12604248 56.86713379 -66.62708496 55.92176758 -67.14331055 54.94775391 C-67.61293213 54.04976074 -68.08255371 53.15176758 -68.56640625 52.2265625 C-68.97705322 51.44490723 -69.3877002 50.66325195 -69.81079102 49.85791016 C-70.87129633 47.59541609 -71.77288804 45.36031369 -72.64073181 43.02059937 C-72.90787459 42.30219564 -73.17501738 41.58379192 -73.45025539 40.84361839 C-73.65229611 40.29709932 -73.85433683 39.75058025 -74.0625 39.1875 C-74.05583817 40.30836502 -74.04917633 41.42923004 -74.04231262 42.58406067 C-73.98156193 53.13457122 -73.93655644 63.68504641 -73.90706348 74.23569202 C-73.89139126 79.66021309 -73.87012453 85.08459325 -73.83618164 90.5090332 C-73.8036438 95.74153216 -73.78565872 100.97389536 -73.77786827 106.20648766 C-73.77231473 108.20523911 -73.76147035 110.20398294 -73.74530983 112.20267677 C-73.72360968 114.99701766 -73.72052996 117.79079382 -73.72192383 120.58520508 C-73.711138 121.41598572 -73.70035217 122.24676636 -73.6892395 123.10272217 C-73.71995558 128.77372083 -73.71995558 128.77372083 -75.46468639 130.88128185 C-79.4967682 134.17752267 -85.13195375 133.37106186 -90.0625 133.375 C-90.86945313 133.38724609 -91.67640625 133.39949219 -92.5078125 133.41210938 C-93.67957031 133.41500977 -93.67957031 133.41500977 -94.875 133.41796875 C-95.58269531 133.42207764 -96.29039062 133.42618652 -97.01953125 133.43041992 C-99.38323146 133.14936331 -100.97001764 132.28812348 -103.0625 131.1875 C-103.15595699 115.10630053 -103.22648575 99.0251892 -103.26974869 82.94378376 C-103.2903707 75.47683444 -103.31848418 68.01005389 -103.36425781 60.54321289 C-103.4041369 54.03481708 -103.42993545 47.52654351 -103.43885398 41.01802891 C-103.44406701 37.57201358 -103.45631131 34.12634793 -103.48542023 30.68044472 C-103.5176583 26.83287648 -103.51845871 22.9856498 -103.51660156 19.13793945 C-103.53098267 17.99642426 -103.54536377 16.85490906 -103.56018066 15.67880249 C-103.51972799 7.95245335 -103.51972799 7.95245335 -101.15911865 4.00309753 C-96.49352459 -0.03714177 -91.22390182 0.96518806 -85.3125 0.9375 C-84.22710937 0.916875 -83.14171875 0.89625 -82.0234375 0.875 C-75.38105696 0.84251892 -70.57905912 1.11865095 -65.375 5.66015625 C-58.52543908 13.95709462 -53.6716122 23.61019609 -48.625 33.0625 C-48.0280835 34.17439697 -47.43116699 35.28629395 -46.81616211 36.43188477 C-43.88633324 41.89290303 -40.96847298 47.36011058 -38.06434631 52.83483887 C-36.74031564 55.32976059 -35.41317105 57.82302038 -34.08590698 60.31622314 C-33.15414323 62.07014182 -32.22750018 63.82677788 -31.30102539 65.58349609 C-27.9970426 71.7931383 -24.5190764 77.78620153 -20.63842773 83.65454102 C-18.9188084 86.4184528 -17.50164496 89.26949018 -16.0625 92.1875 C-16.05219254 91.07694244 -16.04188507 89.96638489 -16.03126526 88.82217407 C-15.93365894 78.3742781 -15.83093716 67.92644339 -15.72316074 57.47864723 C-15.66791283 52.10687975 -15.61448985 46.73510684 -15.56518555 41.36328125 C-15.51756956 36.18262249 -15.46522776 31.00203137 -15.40955925 25.82145309 C-15.38912315 23.84145153 -15.37041217 21.86143141 -15.35342598 19.88139725 C-15.32940974 17.11568723 -15.29935142 14.35010576 -15.26782227 11.58447266 C-15.2620668 10.75944748 -15.25631134 9.9344223 -15.25038147 9.08439636 C-15.17655216 3.41560432 -15.17655216 3.41560432 -14.0625 1.1875 C-9.44803817 -0.35065394 -4.83269697 0.00306838 0 0 Z " fill="#087DD7" transform="translate(313.0625,171.8125)"/>
<path d="M0 0 C0.99558929 -0.00938095 1.99117859 -0.0187619 3.01693726 -0.02842712 C4.08980988 -0.01719315 5.1626825 -0.00595917 6.26806641 0.00561523 C7.38339752 0.00416 8.49872864 0.00270477 9.64785767 0.00120544 C12.01331181 0.00286619 14.37877656 0.01444687 16.74414062 0.03515625 C20.32160859 0.06382418 23.89756699 0.05582459 27.47509766 0.04272461 C42.03561351 0.05470543 56.0687767 0.13611932 69.24462891 7.12670898 C70.24502197 7.64503296 70.24502197 7.64503296 71.265625 8.17382812 C80.63947697 13.23498241 87.88251469 20.12949958 92.99462891 29.50170898 C93.38392578 30.20166992 93.77322266 30.90163086 94.17431641 31.62280273 C102.57063777 49.30410721 100.42446106 76.19383331 94.31884766 94.30639648 C87.45716073 110.86350535 77.95662733 121.0758823 61.68603516 128.56420898 C48.0071571 133.68378907 32.95903425 133.98901936 18.56030273 133.89282227 C15.64016831 133.87647407 12.72136698 133.89290514 9.80126953 133.91186523 C7.93212587 133.90988693 6.06298303 133.90605186 4.19384766 133.90014648 C3.32725021 133.90621918 2.46065277 133.91229187 1.5677948 133.91854858 C0.76207535 133.9090921 -0.0436441 133.89963562 -0.8737793 133.88989258 C-1.57751175 133.8875058 -2.2812442 133.88511902 -3.00630188 133.88265991 C-5.71464318 133.36654715 -7.00163501 132.38903083 -9.00537109 130.50170898 C-9.50873566 128.17595005 -9.50873566 128.17595005 -9.51330566 125.38441467 C-9.53022461 123.79662453 -9.53022461 123.79662453 -9.54748535 122.17675781 C-9.53938843 121.01563477 -9.5312915 119.85451172 -9.52294922 118.65820312 C-9.5299585 117.43524033 -9.53696777 116.21227753 -9.54418945 114.95225525 C-9.55879465 111.59655301 -9.55534866 108.24183521 -9.54267311 104.88618779 C-9.53255183 101.37531912 -9.54193656 97.86449275 -9.54821777 94.35362244 C-9.55549773 88.45637452 -9.54589853 82.55932689 -9.52685547 76.66210938 C-9.5050959 69.84494811 -9.51212963 63.02826552 -9.53416109 56.2111159 C-9.55231739 50.35877037 -9.55487206 44.5065689 -9.54440641 38.65420431 C-9.53817135 35.15859632 -9.5373357 31.66321323 -9.55055237 28.16761971 C-9.56426002 24.26976062 -9.54525723 20.37243681 -9.52294922 16.47460938 C-9.53104614 15.31551056 -9.53914307 14.15641174 -9.54748535 12.96218872 C-9.53620605 11.90084213 -9.52492676 10.83949554 -9.51330566 9.74598694 C-9.51179756 8.82440324 -9.51028946 7.90281954 -9.50873566 6.95330906 C-8.43448962 1.72127277 -5.00633367 0.00095328 0 0 Z M16.99462891 21.50170898 C16.99462891 50.87170898 16.99462891 80.24170898 16.99462891 110.50170898 C40.74424962 110.96814827 40.74424962 110.96814827 59.99462891 100.50170898 C67.92904916 92.56728873 70.20419667 80.67714725 70.32421875 69.8527832 C70.3185791 68.97380371 70.31293945 68.09482422 70.30712891 67.18920898 C70.30148926 66.26640137 70.29584961 65.34359375 70.29003906 64.39282227 C70.07613199 52.34413565 67.46823617 40.96886749 59.36572266 31.62280273 C47.45922382 20.60031309 32.41292674 21.50170898 16.99462891 21.50170898 Z " fill="#087DD7" transform="translate(94.00537109375,172.498291015625)"/>
<path d="M0 0 C2.83569929 3.64344394 2.29463046 8.15524208 2.25 12.5625 C2.26160156 13.71395508 2.26160156 13.71395508 2.2734375 14.88867188 C2.25989467 18.77207821 2.19983549 20.70024677 0 24 C-4.19308427 24.66467103 -6.48209787 23.40676634 -9.9375 21.125 C-17.9949014 15.83852745 -25.49504012 15.08671204 -35 16 C-38.6187099 17.22387812 -40.47873453 19.35710592 -42.875 22.3125 C-44.41214882 25.98457774 -44.67121381 28.03983854 -44 32 C-38.93049591 40.89749697 -29.54682652 44.08621695 -20.57421875 47.8671875 C1.79441357 57.3719277 1.79441357 57.3719277 7 68 C10.35148664 77.89857683 10.03366147 88.38593469 6 98 C0.97950276 108.13227625 -4.88860015 114.2142894 -14.875 119.3125 C-15.8647583 119.81934326 -15.8647583 119.81934326 -16.87451172 120.33642578 C-29.88592269 126.63329828 -46.57060234 127.47648976 -60.25 122.8125 C-74.80532755 117.21186309 -74.80532755 117.21186309 -78 111 C-80.02310221 104.61125617 -81.3609908 98.43829254 -78.8125 92 C-77 90 -77 90 -74.76953125 89.640625 C-71.07260895 90.12033847 -68.95874756 91.67396356 -65.875 93.75 C-56.67269775 99.73175969 -46.20556728 104.19691142 -35 103 C-32.22079759 102.22323562 -29.63182486 101.17554844 -27 100 C-26.21625 99.690625 -25.4325 99.38125 -24.625 99.0625 C-22.46935406 97.65303919 -21.97748176 96.37329259 -21 94 C-20.30693431 89.11630455 -20.44085871 85.13978801 -22.625 80.6875 C-29.6750915 72.70976488 -38.1050428 69.70807664 -47.81640625 65.72460938 C-59.24772904 60.86089306 -68.89879246 54.93577507 -73.75 43.0625 C-77.10772607 32.14066576 -75.59709674 20.51916484 -70.74609375 10.37890625 C-65.35648054 0.4955011 -57.36078432 -4.11277001 -47 -8 C-31.84576858 -12.15434965 -12.63188095 -9.25885181 0 0 Z " fill="#0A7ED7" transform="translate(421,183)"/>
<path d="M0 0 C0.99 0.33 1.98 0.66 3 1 C0.36 3.64 -2.28 6.28 -5 9 C-5 4.61031544 -2.87194899 3.23094261 0 0 Z " fill="#56A6E4" transform="translate(358,183)"/>
<path d="M0 0 C0.33 0.66 0.66 1.32 1 2 C-1.31 4.64 -3.62 7.28 -6 10 C-6.66 9.67 -7.32 9.34 -8 9 C-5.50174717 5.78796065 -2.9297008 2.82506863 0 0 Z " fill="#63ADE6" transform="translate(59,76)"/>
<path d="M0 0 C-0.5775 0.2475 -1.155 0.495 -1.75 0.75 C-4.13449889 1.93990475 -4.13449889 1.93990475 -6.125 4.125 C-6.74375 4.74375 -7.3625 5.3625 -8 6 C-8.66 6 -9.32 6 -10 6 C-7.82304683 0.97626191 -5.41372848 -0.29263397 0 0 Z " fill="#5FAAE6" transform="translate(221,173)"/>
</svg>
